<?xml version="1.0" standalone="no"?>
<!DOCTYPE svg PUBLIC "-//W3C//DTD SVG 20010904//EN"
 "http://www.w3.org/TR/2001/REC-SVG-20010904/DTD/svg10.dtd">
<svg version="1.0" xmlns="http://www.w3.org/2000/svg"
 width="1024.000000pt" height="1024.000000pt" viewBox="0 0 1024.000000 1024.000000"
 preserveAspectRatio="xMidYMid meet">

<g transform="translate(0.000000,1024.000000) scale(0.100000,-0.100000)"
fill="#000000" stroke="none">
<path d="M4350 8979 c-158 -15 -238 -47 -308 -123 -88 -96 -117 -216 -133
-566 -15 -306 -6 -891 14 -1000 47 -246 147 -304 464 -266 76 9 160 17 188 19
l49 2 27 165 c14 91 34 200 43 244 9 43 16 82 16 87 0 20 -24 6 -68 -39 -75
-77 -193 -122 -317 -122 -64 0 -77 13 -95 100 -29 140 -21 963 10 1081 12 45
19 47 175 55 156 8 189 -1 250 -68 25 -28 48 -49 50 -46 3 3 -5 50 -18 104
-13 54 -35 163 -48 242 l-23 142 -96 -1 c-52 -1 -133 -5 -180 -10z"/>
<path d="M5067 8956 c-121 -34 -169 -139 -197 -426 -16 -176 -30 -927 -19
-1054 21 -239 82 -359 206 -406 59 -22 219 -39 388 -42 96 -2 115 0 152 19 50
27 96 81 112 132 22 73 34 401 35 941 1 495 -1 551 -17 610 -10 35 -29 83 -42
106 -27 46 -97 96 -160 114 -63 18 -400 23 -458 6z m357 -322 c8 -20 24 -314
31 -574 7 -241 -7 -591 -28 -660 l-13 -45 -74 -3 c-88 -3 -134 16 -165 69 -19
32 -20 50 -18 349 2 426 27 844 53 875 14 17 207 7 214 -11z"/>
<path d="M6085 8891 c-117 -53 -174 -232 -163 -515 9 -215 57 -321 243 -531
195 -220 248 -320 243 -458 -4 -105 -7 -107 -137 -85 -139 24 -224 60 -287
122 -28 28 -58 62 -67 75 -9 14 -19 22 -22 19 -3 -3 8 -90 24 -194 17 -104 34
-220 38 -259 8 -66 9 -70 38 -77 209 -54 462 -108 509 -108 90 0 138 41 173
147 25 73 24 512 0 603 -37 138 -120 280 -237 404 -157 167 -207 251 -217 366
-3 37 -3 80 1 94 6 23 11 26 49 26 72 0 219 -30 277 -56 65 -30 104 -64 133
-119 l22 -40 3 38 c2 21 -8 124 -22 230 -14 106 -27 205 -28 221 -3 33 12 28
-307 96 -117 25 -213 26 -266 1z"/>
<path d="M3040 8761 c-80 -33 -194 -67 -320 -95 -52 -12 -94 -26 -94 -31 1 -6
14 -16 30 -24 62 -29 74 -49 74 -118 0 -93 -71 -625 -165 -1228 -19 -121 -46
-305 -60 -410 -39 -279 -71 -414 -123 -517 -10 -21 30 -3 112 51 50 32 128 77
173 99 87 44 100 56 85 75 -19 25 -21 81 -6 199 9 68 21 166 28 218 l11 94
119 53 c66 29 122 51 124 48 8 -8 31 -254 31 -330 0 -38 -6 -88 -14 -110 -8
-21 -12 -41 -10 -43 2 -2 61 18 132 46 70 27 152 57 180 67 29 9 55 21 58 25
3 5 -5 26 -19 47 -56 86 -80 230 -176 1063 -46 399 -68 613 -76 738 -4 72 -11
112 -18 111 -6 -1 -40 -13 -76 -28z m-110 -675 c0 -8 14 -120 30 -248 17 -128
30 -249 30 -270 0 -43 -16 -57 -99 -89 l-51 -19 0 23 c0 86 70 617 82 617 4 0
8 -6 8 -14z"/>
<path d="M6896 8722 c-19 -82 -73 -418 -69 -425 2 -4 25 7 50 25 43 31 50 33
133 33 62 0 93 -5 105 -15 17 -14 17 -54 11 -720 -7 -712 -12 -820 -46 -897
-21 -49 -23 -47 70 -87 116 -50 277 -136 325 -172 25 -20 48 -34 51 -32 2 2
-14 40 -36 84 -25 50 -44 104 -51 149 -11 72 -5 1224 7 1428 7 109 8 110 80
76 57 -28 118 -88 175 -175 42 -65 44 -67 47 -39 2 17 -13 113 -32 215 -19
102 -38 209 -42 238 -5 43 -11 55 -33 66 -48 25 -719 276 -736 276 -2 0 -6
-12 -9 -28z"/>
<path d="M1875 8298 c-22 -11 -107 -58 -190 -103 -82 -46 -176 -96 -207 -111
-32 -16 -58 -32 -58 -37 0 -5 13 -25 30 -43 62 -71 60 -33 60 -1193 0 -684 -4
-1079 -11 -1121 -5 -36 -24 -103 -40 -150 -42 -118 -43 -120 -31 -120 5 0 59
57 120 128 171 199 480 492 630 597 23 17 44 39 47 50 4 18 82 504 88 549 5
41 -21 23 -57 -41 -30 -52 -90 -118 -248 -275 l-208 -207 1 457 c1 720 14
1291 33 1396 19 102 47 174 81 206 14 13 22 27 19 31 -7 12 -13 11 -59 -13z"/>
<path d="M8000 8285 c0 -3 15 -31 33 -63 31 -56 32 -59 31 -177 -2 -103 -13
-178 -78 -530 -41 -225 -100 -545 -131 -709 -58 -320 -72 -375 -111 -431 -13
-20 -24 -38 -24 -42 0 -7 29 -30 189 -150 134 -101 171 -121 156 -85 -17 41
-15 119 9 295 14 103 26 195 26 203 0 24 23 12 137 -74 56 -42 104 -86 107
-97 10 -39 28 -430 22 -477 -4 -26 -13 -66 -21 -89 l-15 -43 133 -135 c73 -75
168 -174 211 -221 91 -98 108 -93 52 16 -20 40 -41 103 -50 150 -25 132 -64
520 -81 794 -8 140 -29 446 -45 680 -16 234 -35 499 -41 590 -10 154 -9 235 6
286 6 19 -9 30 -127 95 -73 40 -188 106 -255 146 -121 72 -133 78 -133 68z
m303 -1220 c8 -110 12 -203 10 -208 -6 -10 -89 50 -118 85 l-23 27 28 133 c15
73 35 180 45 238 29 175 27 184 58 -275z"/>
<path d="M4795 6700 c-818 -60 -1510 -328 -2146 -829 -125 -99 -386 -361 -489
-491 -317 -399 -550 -945 -602 -1410 -10 -85 -13 -325 -12 -928 0 -446 3 -815
7 -818 3 -3 97 -2 209 2 271 12 5428 11 6254 0 392 -6 653 -6 656 0 3 5 7 383
9 839 3 766 2 838 -15 935 -81 472 -265 910 -533 1272 -244 328 -505 576 -848
805 -485 324 -1097 543 -1700 608 -169 19 -624 27 -790 15z m-1865 -777 c-8
-3 -22 -11 -30 -17 -13 -10 -13 -9 -1 7 7 9 21 17 30 16 13 0 14 -1 1 -6z
m543 0 c-57 -2 -149 -2 -205 0 -57 1 -11 3 102 3 113 0 159 -2 103 -3z m3862
-19 l30 -25 -32 15 c-17 9 -35 20 -38 26 -11 18 10 10 40 -16z m-4492 -42
c-54 -45 -126 -95 -122 -85 5 13 131 111 144 112 6 0 -5 -12 -22 -27z m4542 8
c3 -5 1 -10 -4 -10 -6 0 -11 5 -11 10 0 6 2 10 4 10 3 0 8 -4 11 -10z m-4704
-130 c-18 -17 -36 -30 -40 -30 -7 1 61 60 69 60 3 0 -10 -14 -29 -30z m4882
-7 c60 -52 267 -257 262 -261 -2 -2 -49 40 -104 94 -91 90 -149 143 -198 180
-11 8 -13 13 -5 14 7 0 27 -12 45 -27z m-4193 -33 c0 -5 -4 -10 -9 -10 -6 0
-13 5 -16 10 -3 6 1 10 9 10 9 0 16 -4 16 -10z m-786 -47 c-80 -75 -115 -105
-120 -100 -4 4 79 88 126 126 48 39 44 21 -6 -26z m2576 -3 c0 -18 -19 -11
-30 11 -11 19 -10 20 9 9 12 -6 21 -15 21 -20z m34 -72 c-4 -6 -10 -5 -15 3
-14 22 -10 33 6 19 8 -7 12 -17 9 -22z m3 -60 c-3 -7 -5 -2 -5 12 0 14 2 19 5
13 2 -7 2 -19 0 -25z m-2782 -28 c-10 -11 -20 -18 -23 -15 -3 3 3 14 13 25 10
11 20 18 23 15 3 -3 -3 -14 -13 -25z m2791 -51 c-2 -28 -9 -56 -16 -62 -10
-10 -11 -4 -6 28 3 22 6 50 6 63 0 12 5 22 10 22 6 0 9 -21 6 -51z m-2897 -71
c-49 -61 -89 -102 -89 -92 0 18 120 158 128 150 2 -3 -15 -29 -39 -58z m5661
-59 c0 -4 16 -24 35 -45 19 -22 35 -43 35 -47 0 -14 -23 -2 -34 18 -6 10 -21
29 -33 42 -13 13 -23 27 -23 31 0 6 -31 47 -63 82 -8 8 -17 22 -21 30 -4 8 18
-12 48 -45 31 -33 56 -63 56 -66z m-3090 52 c0 -5 -12 -16 -26 -26 -26 -17
-26 -10 -1 23 11 14 27 16 27 3z m1955 -12 c10 -15 -1 -23 -20 -15 -9 3 -13
10 -10 16 8 13 22 13 30 -1z m-2019 -46 c-10 -10 -19 5 -10 18 6 11 8 11 12 0
2 -7 1 -15 -2 -18z m-46 -23 c-14 -11 -31 -20 -39 -20 -17 0 -10 8 21 26 35
19 46 16 18 -6z m413 -40 c20 -24 6 -27 -17 -4 -18 17 -20 24 -8 24 4 0 15 -9
25 -20z m-686 -139 c10 -5 -11 -23 -66 -59 -66 -43 -82 -59 -90 -87 -14 -52
11 -224 50 -337 17 -51 32 -100 33 -108 1 -13 -151 -15 -1316 -15 -1051 0
-1318 3 -1318 13 0 44 151 352 255 521 l53 86 1193 -3 c656 -2 1199 -6 1206
-11z m3669 -53 c91 -154 226 -435 258 -536 l7 -22 -588 2 -588 3 -89 63 c-84
58 -116 73 -116 53 0 -4 27 -30 59 -57 33 -27 60 -52 60 -57 1 -4 -189 -6
-421 -4 l-423 3 -104 37 c-57 21 -158 47 -225 59 -107 18 -148 20 -356 15
-176 -5 -259 -11 -330 -25 -52 -11 -97 -18 -99 -16 -2 2 -4 38 -5 81 -1 89 -5
87 101 62 98 -22 119 -1 159 159 24 93 17 106 -57 110 -70 4 -94 -10 -125 -75
-23 -46 -30 -53 -55 -53 -22 0 -32 6 -39 24 -13 36 -23 160 -16 200 l7 36
1474 0 1474 0 37 -62z m-3444 -120 c43 -142 55 -279 34 -402 l-8 -49 -94 5
c-52 3 -97 7 -99 10 -3 3 0 19 6 37 9 27 8 35 -6 51 -10 11 -23 20 -28 20 -6
0 -19 7 -29 17 -14 12 -18 31 -18 82 1 76 22 197 38 213 10 10 158 66 178 67
6 1 17 -23 26 -51z m1313 -473 c41 -10 75 -21 75 -26 0 -11 -104 -6 -112 6 -4
5 -10 6 -15 2 -10 -10 18 -28 34 -22 7 2 15 0 18 -6 4 -5 18 -9 33 -9 45 1 77
-5 83 -14 9 -11 31 3 24 15 -4 5 -15 9 -26 9 -10 0 -19 5 -19 11 0 28 193 -41
259 -92 23 -19 23 -19 2 -19 -11 0 -21 4 -21 10 0 5 -7 7 -16 3 -9 -3 -13 -12
-9 -22 5 -13 4 -14 -6 -3 -7 6 -21 12 -31 12 -16 0 -17 -3 -8 -20 6 -11 15
-18 21 -15 5 4 9 1 9 -4 0 -14 -10 -13 -40 4 -33 19 -44 19 -36 0 3 -9 -1 -18
-9 -21 -11 -4 -12 -11 -5 -24 12 -23 45 -37 36 -15 -3 8 -1 15 4 15 6 0 10
-10 10 -21 0 -16 -5 -20 -19 -16 -22 5 -46 -7 -46 -25 -1 -14 19 -38 31 -38 5
0 3 5 -4 12 -7 7 -12 18 -12 25 0 20 21 15 27 -6 3 -11 12 -22 22 -24 20 -4
63 11 73 26 6 9 8 9 8 0 0 -7 5 -13 10 -13 6 0 10 6 10 14 0 9 9 13 24 12 18
-2 22 1 18 16 -3 12 1 18 12 18 9 0 16 5 16 11 0 6 7 9 15 6 27 -11 25 11 -2
32 -22 16 -24 20 -10 21 9 0 17 -4 17 -10 0 -5 7 -10 16 -10 8 0 52 -24 97
-54 87 -58 160 -126 134 -126 -8 0 -17 7 -21 15 -3 8 -11 15 -17 15 -8 0 -8
-4 1 -15 22 -27 1 -35 -43 -16 -141 60 -379 59 -522 -2 -27 -12 -91 -50 -142
-84 -51 -35 -95 -63 -98 -63 -3 0 -5 9 -5 21 0 19 -3 18 -37 -12 -21 -17 -39
-41 -40 -53 -2 -11 -8 -25 -13 -30 -12 -12 -13 -26 -1 -26 4 0 20 18 35 40 14
22 21 40 16 40 -6 0 -8 4 -5 10 4 6 11 5 20 -3 11 -10 9 -16 -10 -37 -13 -14
-29 -36 -35 -50 -5 -14 -25 -47 -43 -75 -29 -46 -32 -57 -32 -130 0 -73 3 -87
40 -160 36 -71 114 -179 155 -213 28 -23 194 -101 260 -121 188 -58 454 -46
745 35 444 124 531 138 855 139 376 0 466 -24 676 -181 112 -83 104 -51 104
-449 l0 -345 -1117 5 c-615 2 -2172 5 -3460 6 l-2343 2 0 409 0 408 52 0 c132
0 581 111 968 240 77 26 106 36 165 61 57 24 306 119 311 119 11 0 212 96 620
296 94 46 178 84 187 84 9 0 18 4 21 9 7 11 234 121 250 121 7 0 17 5 23 11 6
6 19 9 29 7 16 -4 13 -7 -11 -17 -16 -7 -38 -21 -47 -31 -20 -21 -24 -35 -8
-25 6 3 10 -1 10 -9 0 -9 9 -16 20 -16 27 0 38 -30 17 -42 -23 -12 -10 -38 19
-38 28 0 30 -6 9 -27 -18 -17 -10 -39 9 -24 7 6 17 7 21 3 5 -4 5 -1 1 6 -5 8
0 12 13 12 12 0 21 -7 21 -15 0 -18 21 -20 39 -2 11 10 13 10 7 0 -4 -7 -3
-13 1 -13 5 0 21 6 36 13 19 8 27 20 27 38 0 15 3 41 7 59 4 20 2 31 -3 27
-15 -9 -30 5 -37 35 -4 16 -3 30 5 34 7 4 8 3 4 -4 -4 -7 -2 -12 3 -12 6 0 11
8 11 18 0 10 6 26 13 37 13 17 15 17 30 -6 10 -13 17 -20 17 -15 0 5 8 2 18
-7 10 -10 23 -14 27 -10 5 5 3 0 -4 -9 -17 -23 -3 -23 21 -1 17 15 18 15 18
-5 0 -12 6 -22 13 -23 10 0 10 -2 0 -6 -16 -6 -17 -29 -1 -39 7 -4 8 -3 4 4
-4 7 2 22 14 34 l21 23 -9 -24 c-5 -13 -7 -34 -4 -47 4 -24 32 -42 32 -21 0 7
6 22 14 32 13 18 14 17 12 -10 -1 -17 -5 -36 -9 -42 -5 -7 -3 -21 2 -30 6 -10
11 -12 11 -5 0 21 2 26 12 45 5 10 11 43 13 75 4 51 2 55 -10 38 -13 -17 -14
-17 -12 6 1 13 10 32 20 42 9 10 17 23 17 29 0 7 -4 6 -10 -3 -9 -13 -11 -13
-20 0 -13 20 -13 30 1 30 5 0 7 5 4 10 -7 12 -26 14 -24 3 4 -23 -3 -35 -16
-29 -9 3 -15 1 -14 -7 3 -26 -1 -47 -11 -47 -9 0 -7 33 5 81 5 20 2 28 -12 33
-10 3 -24 9 -30 12 -8 3 -13 -1 -13 -10 0 -9 3 -15 8 -15 22 4 32 -3 32 -23 0
-17 -3 -19 -9 -9 -9 14 -35 9 -64 -13 -14 -11 -16 -19 -7 -40 5 -15 6 -26 0
-26 -11 0 -40 28 -40 39 0 16 -44 3 -61 -18 -19 -24 -44 -19 -44 9 0 8 -4 14
-10 14 -107 -16 -102 -16 -74 0 14 8 61 29 105 46 43 17 93 37 109 45 73 33
109 45 132 45 20 0 23 -4 18 -20 -4 -12 -2 -20 5 -20 6 0 8 5 5 10 -3 6 1 10
9 10 19 0 21 16 4 23 -7 3 -8 6 -3 6 6 0 17 -4 25 -10 11 -8 12 -12 3 -16 -15
-5 -17 -51 -4 -71 11 -18 21 7 15 40 -2 12 1 8 8 -10 11 -32 9 -58 -21 -232
-5 -30 -12 -81 -14 -113 -3 -32 -6 -59 -8 -61 -2 -2 -22 0 -44 4 -22 4 -30 8
-17 9 19 1 21 3 10 15 -9 10 -15 11 -20 2 -5 -8 -10 -8 -19 1 -6 6 -25 9 -44
6 -19 -3 -35 0 -39 6 -5 8 -13 8 -28 0 -11 -6 -31 -9 -45 -6 -13 2 -21 1 -16
-3 4 -5 19 -10 33 -13 67 -12 -98 -5 -183 8 -117 18 -129 23 -147 69 -11 30
-19 36 -44 36 -47 0 -113 -38 -186 -106 -121 -114 -149 -179 -85 -196 16 -4
32 -4 35 0 3 4 18 14 34 22 23 12 67 15 214 13 102 -1 208 -7 236 -13 57 -13
186 -59 186 -67 0 -2 -8 -2 -17 1 -10 3 -25 1 -33 -4 -13 -8 -13 -9 0 -14 44
-13 60 -13 60 0 0 19 12 18 100 -7 121 -33 150 -19 248 121 57 82 61 86 58 66
-1 -9 -10 -25 -19 -36 -9 -10 -17 -27 -19 -37 -2 -10 -10 -23 -18 -30 -8 -7
-10 -13 -5 -13 6 -1 18 -3 28 -5 13 -2 15 0 8 9 -13 15 3 41 19 31 6 -4 9 -14
5 -24 -5 -12 -4 -13 6 -4 9 9 9 16 2 25 -16 19 2 58 27 58 12 0 20 7 20 18 0
15 -2 15 -11 2 -9 -13 -10 -13 -6 0 2 8 9 14 15 13 6 -2 21 11 32 28 18 24 19
33 10 44 -20 24 -35 18 -56 -20 -10 -19 -22 -35 -26 -35 -10 0 20 70 38 88 13
13 19 10 48 -19 19 -19 57 -63 85 -98 51 -64 51 -65 51 -135 0 -78 30 -200 74
-305 18 -43 26 -74 22 -93 -8 -38 2 -62 20 -47 10 8 19 0 39 -43 21 -42 28
-74 33 -155 4 -56 11 -105 15 -110 5 -4 75 -8 156 -9 144 -1 149 -2 212 -33
99 -49 189 -64 379 -65 238 -1 387 32 710 154 257 97 447 159 539 175 91 16
386 21 395 6 3 -4 -48 -11 -114 -15 -120 -7 -150 -12 -150 -25 0 -11 146 -31
224 -31 85 0 248 45 244 68 -5 25 -162 75 -308 98 -218 34 -427 -1 -740 -126
-187 -75 -515 -174 -645 -195 -196 -32 -382 -27 -510 12 l-59 19 36 22 c20 12
39 30 42 39 9 22 -51 83 -81 83 -13 0 -21 5 -19 13 1 6 1 9 -1 5 -8 -13 -78
-9 -123 7 -68 24 -94 69 -104 180 -4 39 -14 113 -22 165 -8 52 -19 160 -24
240 -8 131 -26 224 -48 240 -8 6 -17 20 -82 132 -52 90 -63 121 -35 98 8 -7
15 -20 15 -29 0 -12 2 -13 9 -3 7 11 9 11 14 -2 3 -8 2 -18 -4 -21 -5 -4 -3
-12 6 -21 11 -11 19 -12 32 -5 10 6 12 11 6 11 -16 0 -11 59 6 70 7 4 12 11
11 16 -1 5 4 10 12 12 11 3 11 2 0 -6 -10 -7 -9 -12 4 -23 15 -12 17 -12 9 0
-6 11 -4 13 8 8 12 -5 19 1 23 19 4 14 4 28 0 31 -3 4 -6 -3 -6 -15 0 -12 -4
-22 -10 -22 -5 0 -6 7 -3 17 5 12 3 14 -8 8 -12 -8 -12 -6 0 8 7 9 11 17 7 18
-41 7 -116 -8 -116 -22 0 -5 -5 -9 -12 -9 -6 0 -8 3 -5 7 4 3 2 12 -4 20 -6 7
-12 34 -13 61 -1 26 -6 53 -11 61 -6 10 -2 19 13 29 12 8 22 20 22 27 0 6 7
12 15 12 10 0 13 -7 9 -24 -6 -22 6 -29 38 -24 4 0 5 -6 2 -14 -5 -11 1 -15
24 -15 35 0 52 16 25 23 -16 4 -16 5 -1 6 26 2 32 -17 14 -44 -9 -14 -16 -28
-16 -32 0 -11 34 -10 42 2 4 6 8 2 8 -7 0 -12 8 -18 24 -18 14 0 28 -4 31 -10
10 -17 32 -11 38 10 3 12 14 20 26 20 12 0 21 5 21 11 0 5 -9 9 -20 7 -10 -2
-19 1 -19 6 1 5 -5 12 -13 17 -7 5 -14 13 -14 19 -1 5 -2 16 -3 23 -1 6 -13
-1 -28 -18 -23 -26 -24 -27 -10 -4 15 25 15 27 -15 49 -17 12 -28 19 -25 13 3
-5 -3 -15 -15 -22 -13 -8 -18 -8 -13 -1 4 6 -1 18 -11 25 -12 9 -14 14 -6 15
7 0 11 4 7 9 -3 5 -1 12 5 16 5 3 10 2 10 -3 0 -6 8 -13 18 -16 14 -6 13 -3
-4 14 -17 17 -33 21 -85 21 -35 0 -73 -2 -84 -5 -11 -2 -28 -5 -38 -5 -15 -1
-18 -9 -16 -53 3 -72 11 -91 20 -48 5 22 3 40 -4 49 -10 12 -9 13 10 3 16 -9
23 -9 26 1 4 8 6 9 6 0 1 -6 -6 -18 -14 -27 -11 -10 -14 -31 -12 -68 2 -29 0
-64 -4 -78 l-6 -25 -13 30 c-24 60 -32 172 -15 223 2 6 20 12 39 12 20 0 82 7
138 15 232 35 526 34 673 0z m-1448 -68 c8 -9 9 -9 -72 -42 -180 -73 -409
-177 -706 -321 -178 -86 -355 -170 -394 -187 l-70 -32 -852 -3 -853 -3 0 36
c0 55 28 230 55 344 41 168 55 209 73 215 25 7 2811 0 2819 -7z m3885 -10 c14
-22 67 -233 82 -322 8 -49 18 -127 22 -172 l7 -83 -174 -2 c-535 -5 -2459 -3
-2459 2 0 18 113 111 166 138 111 56 193 75 307 70 88 -3 111 -8 167 -34 36
-17 95 -57 129 -88 75 -66 100 -75 148 -52 69 33 80 127 26 235 -36 70 -176
201 -285 266 l-83 50 935 5 c514 3 951 3 970 1 19 -2 38 -8 42 -14z m-2102
-153 c0 -8 -4 -12 -10 -9 -5 3 -10 10 -10 16 0 5 5 9 10 9 6 0 10 -7 10 -16z
m-1103 -80 c-3 -3 -12 -4 -19 -1 -8 3 -5 6 6 6 11 1 17 -2 13 -5z m50 -26 c-3
-8 -6 -5 -6 6 -1 11 2 17 5 13 3 -3 4 -12 1 -19z m-927 -73 c0 -8 -7 -15 -15
-15 -16 0 -20 12 -8 23 11 12 23 8 23 -8z m2385 -25 c3 -6 -1 -7 -9 -4 -18 7
-21 14 -7 14 6 0 13 -4 16 -10z m-2162 -207 c-7 -2 -21 -2 -30 0 -10 3 -4 5
12 5 17 0 24 -2 18 -5z m-1529 -112 c8 -13 -231 -106 -559 -217 -265 -90 -627
-175 -804 -190 l-81 -7 0 197 c0 108 -1 199 -2 204 -4 10 286 17 899 20 306 1
544 -2 547 -7z m5494 -253 c1 -137 -1 -248 -4 -248 -3 0 -28 16 -54 35 -72 53
-215 121 -314 149 -173 50 -459 56 -747 15 -126 -18 -397 -82 -679 -160 -108
-30 -126 -32 -285 -33 -135 -1 -185 3 -245 18 -158 39 -289 126 -345 227 -25
47 -29 65 -30 134 0 44 3 88 7 98 7 16 78 17 1350 15 l1343 -3 3 -247z m-3268
-248 c0 -5 -4 -10 -10 -10 -5 0 -10 5 -10 10 0 6 5 10 10 10 6 0 10 -4 10 -10z"/>
<path d="M4020 4890 c0 -11 4 -20 9 -20 11 0 22 26 14 34 -12 12 -23 5 -23
-14z"/>
<path d="M4080 4860 c0 -15 5 -20 18 -18 9 2 17 10 17 18 0 8 -8 16 -17 18
-13 2 -18 -3 -18 -18z"/>
<path d="M4270 4785 c14 -7 27 -11 30 -9 6 7 -22 24 -40 23 -9 0 -5 -6 10 -14z"/>
<path d="M2790 4591 c0 -15 6 -21 21 -21 25 0 22 33 -4 38 -12 2 -17 -3 -17
-17z"/>
<path d="M5635 4459 c-55 -4 -113 -10 -130 -12 -16 -3 -43 -6 -60 -7 l-30 -1
39 -18 c34 -16 42 -17 54 -5 15 16 36 9 26 -8 -4 -7 -2 -8 5 -4 6 4 14 1 17
-8 5 -12 9 -13 19 -3 9 9 10 14 2 19 -25 16 3 18 33 3 23 -12 35 -13 45 -5 9
8 14 7 18 -4 3 -8 -1 -17 -8 -20 -8 -3 -13 -11 -11 -18 1 -7 1 -10 -1 -5 -3 4
-10 4 -16 0 -7 -4 -8 0 -3 12 5 15 4 16 -8 6 -10 -8 -16 -9 -21 -1 -9 15 -25
12 -25 -5 0 -8 6 -12 13 -9 8 3 19 -2 26 -10 10 -12 9 -14 -6 -10 -13 4 -21
-3 -30 -25 -7 -19 -8 -33 -2 -37 5 -3 7 -10 4 -15 -4 -5 3 -9 14 -9 12 0 21
-5 21 -11 0 -18 33 -5 36 14 2 13 -5 17 -33 17 -23 0 -33 4 -30 13 2 6 10 11
16 9 7 -1 10 2 6 7 -3 6 3 15 14 21 17 8 19 8 15 -4 -3 -8 -1 -17 5 -21 6 -3
11 1 11 9 0 9 6 15 13 14 8 -2 12 9 12 31 0 23 7 38 22 48 21 14 23 14 32 -8
6 -16 10 -18 10 -8 1 10 9 16 18 15 10 0 18 5 18 12 0 6 4 11 10 10 5 -2 9
-10 8 -18 -2 -8 3 -5 9 8 10 20 17 22 50 17 23 -4 38 -3 38 3 0 6 -26 14 -57
18 -84 10 -99 10 -208 3z"/>
<path d="M5926 4432 c13 -13 22 -15 30 -8 17 16 7 26 -23 26 -26 0 -26 0 -7
-18z"/>
<path d="M5500 4378 c0 -4 5 -8 11 -8 5 0 7 -6 4 -12 -4 -7 0 -5 8 4 8 10 18
14 22 10 5 -4 5 -2 1 5 -7 13 -46 14 -46 1z"/>
<path d="M5978 4372 c-4 -21 41 -47 55 -33 5 5 15 7 23 4 8 -3 12 3 11 16 -1
15 -4 17 -14 9 -7 -6 -13 -7 -13 -2 0 5 -4 3 -9 -5 -7 -11 -13 -9 -29 7 -19
19 -21 19 -24 4z"/>
<path d="M5810 4373 c-8 -2 -21 -7 -29 -9 -10 -3 -11 -8 -3 -16 6 -6 8 -17 5
-26 -5 -11 -3 -13 8 -7 9 6 8 0 -4 -19 -13 -19 -16 -31 -9 -38 15 -15 32 0 32
27 0 13 5 27 10 30 16 10 11 25 -6 18 -14 -5 -15 -3 -5 16 7 12 17 18 23 15 7
-4 8 -3 4 4 -4 7 -8 12 -9 11 -1 0 -9 -3 -17 -6z"/>
<path d="M5884 4351 c4 -6 1 -11 -7 -11 -21 0 -29 -26 -12 -40 10 -8 11 -19 4
-42 -9 -34 -5 -48 16 -48 7 0 16 -6 19 -12 3 -9 8 -8 16 5 6 9 16 14 22 11 7
-5 9 2 6 19 -3 15 -1 24 3 21 5 -3 9 -1 9 4 0 6 -12 13 -26 16 -25 7 -25 8 -8
21 10 7 23 11 28 8 5 -4 6 -1 2 5 -3 6 2 15 11 21 18 10 16 12 -22 16 -11 1
-31 5 -44 10 -16 5 -21 4 -17 -4z"/>
<path d="M6178 4333 c7 -3 16 -2 19 1 4 3 -2 6 -13 5 -11 0 -14 -3 -6 -6z"/>
<path d="M5970 4311 c0 -18 18 -21 30 -6 10 13 9 15 -9 15 -11 0 -21 -4 -21
-9z"/>
<path d="M5671 4284 c0 -11 3 -14 6 -6 3 7 2 16 -1 19 -3 4 -6 -2 -5 -13z"/>
<path d="M6206 4253 c-6 -14 -5 -15 5 -6 7 7 10 15 7 18 -3 3 -9 -2 -12 -12z"/>
<path d="M5296 4245 c-8 -23 -8 -24 12 -21 9 2 17 9 17 16 0 20 -22 23 -29 5z"/>
<path d="M5574 4225 c6 -24 5 -27 -13 -22 -26 7 -27 -9 -2 -22 27 -15 49 12
30 37 -13 15 -12 16 3 4 12 -9 18 -10 23 -2 8 14 7 15 -24 25 -22 7 -23 5 -17
-20z"/>
<path d="M5670 4239 c0 -5 5 -7 10 -4 6 3 10 8 10 11 0 2 -4 4 -10 4 -5 0 -10
-5 -10 -11z"/>
<path d="M5340 4226 c0 -8 -6 -16 -12 -19 -7 -3 -3 -4 9 -4 14 1 21 7 20 19
-1 21 -17 25 -17 4z"/>
<path d="M5755 4231 c-3 -6 5 -15 17 -22 20 -11 21 -10 11 3 -7 8 -10 18 -6
21 3 4 1 7 -5 7 -6 0 -13 -4 -17 -9z"/>
<path d="M5459 4212 c0 -4 -2 -15 -4 -25 -2 -13 1 -17 10 -13 8 3 22 -3 32
-12 16 -16 17 -16 10 1 -4 12 -1 17 11 17 14 0 14 2 3 9 -8 5 -21 7 -29 3 -9
-3 -13 -1 -9 5 4 6 0 13 -8 17 -8 3 -15 2 -16 -2z"/>
<path d="M4512 4194 c-29 -13 -32 -17 -21 -30 12 -14 15 -14 31 6 14 17 21 20
32 11 11 -9 15 -7 19 9 6 24 -12 25 -61 4z"/>
<path d="M6110 4180 c0 -5 5 -10 11 -10 5 0 7 5 4 10 -3 6 -8 10 -11 10 -2 0
-4 -4 -4 -10z"/>
<path d="M5716 4170 c-17 -6 -18 -7 -3 -13 13 -5 15 -14 11 -39 -5 -25 -4 -30
5 -22 14 13 23 71 13 77 -4 3 -16 1 -26 -3z"/>
<path d="M5996 4164 c-18 -18 -21 -34 -5 -34 5 0 7 5 4 10 -3 6 5 14 19 20 29
10 34 20 12 20 -8 0 -22 -7 -30 -16z"/>
<path d="M5460 4150 c0 -5 5 -10 11 -10 5 0 7 5 4 10 -3 6 -8 10 -11 10 -2 0
-4 -4 -4 -10z"/>
<path d="M6060 4145 c0 -8 2 -15 4 -15 2 0 6 7 10 15 3 8 1 15 -4 15 -6 0 -10
-7 -10 -15z"/>
<path d="M6551 4144 c0 -11 3 -14 6 -6 3 7 2 16 -1 19 -3 4 -6 -2 -5 -13z"/>
<path d="M6139 4134 c-7 -9 -21 -13 -33 -10 -16 3 -28 -4 -46 -29 -14 -19 -29
-35 -34 -35 -6 0 3 13 18 29 25 26 26 29 8 24 -11 -2 -31 -15 -43 -26 -20 -19
-21 -22 -6 -25 9 -2 17 -8 17 -13 0 -10 33 6 64 31 10 8 19 13 20 11 2 -6 116
31 116 39 0 7 -34 20 -56 20 -6 0 -17 -7 -25 -16z"/>
<path d="M5608 4122 c-16 -2 -29 -9 -30 -15 -4 -36 -2 -77 5 -77 4 0 7 9 7 19
0 30 29 55 46 40 11 -9 14 -7 14 9 0 25 -7 29 -42 24z"/>
<path d="M5866 4114 c-4 -11 -1 -14 11 -12 9 2 18 9 21 16 6 18 -25 15 -32 -4z"/>
<path d="M5503 4087 c-13 -5 -23 -14 -23 -20 0 -5 7 -4 15 3 8 6 19 9 25 5 5
-3 10 -1 10 5 0 6 4 9 9 5 5 -3 12 -2 15 3 7 12 -25 11 -51 -1z"/>
<path d="M5866 4057 c3 -8 -2 -21 -10 -30 -9 -9 -13 -23 -10 -31 7 -19 26 -21
23 -3 -3 26 1 38 13 31 6 -4 8 -3 4 4 -3 5 0 12 6 14 8 3 5 9 -9 17 -19 9 -22
9 -17 -2z"/>
<path d="M5510 4040 c0 -5 5 -10 10 -10 6 0 10 5 10 10 0 6 -4 10 -10 10 -5 0
-10 -4 -10 -10z"/>
<path d="M5764 4039 c-4 -7 1 -18 10 -25 10 -7 15 -17 11 -23 -3 -7 0 -8 9 -5
20 8 20 11 -3 40 -13 17 -22 21 -27 13z"/>
<path d="M5537 4011 c-4 -17 -3 -21 5 -13 5 5 8 16 6 23 -3 8 -7 3 -11 -10z"/>
<path d="M5920 4020 c0 -5 5 -10 10 -10 6 0 10 5 10 10 0 6 -4 10 -10 10 -5 0
-10 -4 -10 -10z"/>
<path d="M4120 3990 c0 -5 7 -10 16 -10 8 0 12 5 9 10 -3 6 -10 10 -16 10 -5
0 -9 -4 -9 -10z"/>
<path d="M5893 3980 c1 -11 5 -20 9 -20 11 0 10 28 -1 35 -6 3 -9 -4 -8 -15z"/>
<path d="M3975 3954 c-33 -19 -68 -37 -77 -40 -10 -3 -14 -12 -11 -21 5 -12 7
-12 14 -2 6 10 10 8 16 -9 l9 -23 21 21 c12 11 41 30 65 42 24 12 45 25 48 29
3 4 14 9 25 12 18 4 18 5 -2 6 -13 0 -23 6 -23 11 0 17 -23 10 -85 -26z"/>
<path d="M4160 3971 c-6 -12 -6 -22 -1 -26 10 -6 14 -1 24 28 9 23 -10 22 -23
-2z"/>
<path d="M5460 3970 c-11 -11 -17 -26 -13 -36 3 -9 1 -19 -6 -23 -17 -11 -24
-74 -8 -68 9 3 12 -4 10 -27 -2 -31 -2 -31 6 4 5 19 8 38 5 41 -4 8 19 19 55
25 32 7 56 25 57 47 1 9 -1 17 -5 18 -3 0 -14 2 -23 4 -12 2 -18 -3 -18 -15 0
-10 -4 -21 -9 -24 -5 -4 -7 2 -4 13 3 10 -1 22 -8 26 -8 6 -10 4 -4 -5 5 -9 4
-11 -4 -6 -6 4 -9 16 -6 27 8 24 0 24 -25 -1z"/>
<path d="M5743 3933 c2 -12 6 -26 10 -29 11 -11 8 19 -3 36 -8 12 -9 10 -7 -7z"/>
<path d="M5760 3940 c0 -5 4 -10 9 -10 6 0 13 5 16 10 3 6 -1 10 -9 10 -9 0
-16 -4 -16 -10z"/>
<path d="M4175 3930 c-8 -14 4 -32 16 -24 6 3 16 -2 23 -11 11 -15 16 -15 33
-4 16 9 18 15 9 24 -16 16 -74 26 -81 15z"/>
<path d="M4535 3920 c3 -5 8 -10 11 -10 2 0 4 5 4 10 0 6 -5 10 -11 10 -5 0
-7 -4 -4 -10z"/>
<path d="M4621 3894 c0 -11 3 -14 6 -6 3 7 2 16 -1 19 -3 4 -6 -2 -5 -13z"/>
<path d="M4667 3865 c-4 -8 -3 -16 1 -19 4 -3 9 4 9 15 2 23 -3 25 -10 4z"/>
<path d="M4285 3850 c3 -5 12 -7 20 -3 21 7 19 13 -6 13 -11 0 -18 -4 -14 -10z"/>
<path d="M3718 3831 c-52 -16 -60 -26 -28 -34 13 -3 20 0 20 9 0 8 10 14 24
14 14 0 28 5 31 11 10 16 4 16 -47 0z"/>
<path d="M3815 3831 c-3 -5 2 -11 12 -13 15 -3 15 -4 0 -19 -9 -9 -13 -19 -10
-22 9 -10 33 20 33 42 0 21 -24 29 -35 12z"/>
<path d="M3638 3783 c6 -2 18 -2 25 0 6 3 1 5 -13 5 -14 0 -19 -2 -12 -5z"/>
<path d="M3605 3760 c3 -5 11 -10 16 -10 6 0 7 5 4 10 -3 6 -11 10 -16 10 -6
0 -7 -4 -4 -10z"/>
<path d="M3756 3762 c-9 -14 35 -45 47 -33 12 12 -1 33 -15 25 -6 -4 -14 -1
-18 6 -5 8 -10 9 -14 2z"/>
<path d="M5069 3753 c-13 -16 -12 -17 4 -4 16 13 21 21 13 21 -2 0 -10 -8 -17
-17z"/>
<path d="M5717 3746 c-4 -10 -1 -13 8 -9 8 3 12 9 9 14 -7 12 -11 11 -17 -5z"/>
<path d="M3560 3730 c-13 -8 -12 -10 3 -10 9 0 17 5 17 10 0 12 -1 12 -20 0z"/>
<path d="M5010 3720 c-8 -5 -10 -10 -4 -10 6 0 10 -16 9 -35 -1 -41 2 -44 15
-10 6 17 15 23 29 20 11 -2 24 1 27 7 4 7 2 8 -4 4 -7 -4 -12 -2 -12 3 0 6 -3
10 -7 10 -23 -4 -43 2 -38 11 8 12 4 12 -15 0z"/>
<path d="M3771 3704 c0 -11 3 -14 6 -6 3 7 2 16 -1 19 -3 4 -6 -2 -5 -13z"/>
<path d="M5134 3693 c-6 -10 -9 -35 -6 -55 3 -28 0 -39 -12 -44 -9 -3 -16 -10
-16 -15 0 -5 11 -2 26 7 14 9 23 23 20 30 -3 8 0 11 10 7 8 -3 14 1 14 10 0 9
3 22 6 31 4 11 0 16 -15 16 -14 0 -19 5 -15 15 8 20 1 19 -12 -2z"/>
<path d="M3355 3650 c-3 -5 -1 -10 4 -10 6 0 11 5 11 10 0 6 -2 10 -4 10 -3 0
-8 -4 -11 -10z"/>
<path d="M4080 3650 c0 -5 4 -10 9 -10 5 0 8 -8 7 -17 -4 -24 -18 -23 -22 0
-3 25 -10 30 -26 20 -10 -6 -7 -14 15 -35 l28 -27 11 24 c11 25 5 55 -12 55
-5 0 -10 -4 -10 -10z"/>
<path d="M4148 3648 c9 -9 15 -9 24 0 9 9 7 12 -12 12 -19 0 -21 -3 -12 -12z"/>
<path d="M3928 3643 c7 -3 16 -2 19 1 4 3 -2 6 -13 5 -11 0 -14 -3 -6 -6z"/>
<path d="M4240 3635 c0 -8 5 -15 10 -15 6 0 10 7 10 15 0 8 -4 15 -10 15 -5 0
-10 -7 -10 -15z"/>
<path d="M4873 3613 c-4 -10 -15 -24 -25 -31 -21 -15 -15 -34 8 -25 8 3 12 8
9 11 -3 3 2 14 12 24 9 10 12 18 7 18 -5 0 -2 5 6 10 10 7 11 10 2 10 -7 0
-16 -8 -19 -17z"/>
<path d="M4970 3620 c-13 -8 -12 -10 3 -10 9 0 17 5 17 10 0 12 -1 12 -20 0z"/>
<path d="M5703 3581 c1 -26 6 -41 14 -41 9 0 11 10 6 33 -9 49 -21 54 -20 8z"/>
<path d="M3861 3606 c2 -2 14 -9 26 -15 18 -9 22 -9 18 2 -3 7 -15 13 -26 14
-12 1 -20 1 -18 -1z"/>
<path d="M4260 3590 c0 -19 3 -21 12 -12 9 9 9 15 0 24 -9 9 -12 7 -12 -12z"/>
<path d="M4410 3588 c0 -12 1 -19 3 -17 1 2 9 12 16 22 12 14 11 17 -3 17 -10
0 -16 -8 -16 -22z"/>
<path d="M4941 3584 c0 -11 3 -14 6 -6 3 7 2 16 -1 19 -3 4 -6 -2 -5 -13z"/>
<path d="M3200 3576 c0 -9 5 -16 10 -16 6 0 10 4 10 9 0 6 -4 13 -10 16 -5 3
-10 -1 -10 -9z"/>
<path d="M4140 3579 c0 -5 5 -7 10 -4 6 3 10 8 10 11 0 2 -4 4 -10 4 -5 0 -10
-5 -10 -11z"/>
<path d="M4575 3560 c4 -6 11 -8 16 -5 14 9 11 15 -7 15 -8 0 -12 -5 -9 -10z"/>
<path d="M4626 3533 c-6 -14 -5 -15 5 -6 7 7 10 15 7 18 -3 3 -9 -2 -12 -12z"/>
<path d="M4806 3535 c4 -8 8 -15 10 -15 2 0 4 7 4 15 0 8 -4 15 -10 15 -5 0
-7 -7 -4 -15z"/>
<path d="M4356 3524 c-5 -14 -4 -15 9 -4 17 14 19 20 6 20 -5 0 -12 -7 -15
-16z"/>
<path d="M4675 3530 c-3 -5 1 -10 9 -10 9 0 16 5 16 10 0 6 -4 10 -9 10 -6 0
-13 -4 -16 -10z"/>
<path d="M4717 3516 c-4 -10 2 -13 18 -12 13 0 21 4 19 8 -2 4 6 9 18 11 15 3
10 5 -13 6 -23 0 -39 -4 -42 -13z"/>
<path d="M4861 3514 c0 -11 3 -14 6 -6 3 7 2 16 -1 19 -3 4 -6 -2 -5 -13z"/>
<path d="M4905 3520 c3 -5 8 -10 11 -10 2 0 4 5 4 10 0 6 -5 10 -11 10 -5 0
-7 -4 -4 -10z"/>
<path d="M4780 3495 c7 -8 17 -12 22 -9 6 4 5 10 -3 15 -22 14 -33 10 -19 -6z"/>
<path d="M5101 3494 c0 -11 3 -14 6 -6 3 7 2 16 -1 19 -3 4 -6 -2 -5 -13z"/>
<path d="M5160 3486 c0 -31 6 -34 13 -6 3 11 1 23 -4 26 -5 3 -9 -6 -9 -20z"/>
<path d="M4737 3469 c4 -13 8 -18 11 -10 2 7 -1 18 -6 23 -8 8 -9 4 -5 -13z"/>
<path d="M4911 3458 c-1 -10 -5 -18 -11 -18 -5 0 -10 -5 -10 -12 0 -8 6 -7 16
4 9 9 14 22 11 30 -4 9 -6 7 -6 -4z"/>
<path d="M5745 3450 c-3 -5 -1 -10 4 -10 6 0 11 5 11 10 0 6 -2 10 -4 10 -3 0
-8 -4 -11 -10z"/>
<path d="M4362 3435 c-7 -8 -9 -15 -4 -15 5 0 15 7 22 15 16 19 -1 19 -18 0z"/>
<path d="M5470 3422 c0 -17 4 -33 10 -37 5 -3 7 7 5 26 -5 42 -15 50 -15 11z"/>
<path d="M5101 3424 c0 -11 3 -14 6 -6 3 7 2 16 -1 19 -3 4 -6 -2 -5 -13z"/>
<path d="M2768 3403 c7 -3 16 -2 19 1 4 3 -2 6 -13 5 -11 0 -14 -3 -6 -6z"/>
<path d="M5202 3385 c0 -16 2 -22 5 -12 2 9 2 23 0 30 -3 6 -5 -1 -5 -18z"/>
<path d="M2708 3383 c7 -3 16 -2 19 1 4 3 -2 6 -13 5 -11 0 -14 -3 -6 -6z"/>
<path d="M5500 3364 c0 -22 -3 -25 -10 -14 -6 10 -8 -1 -6 -35 2 -27 5 -52 6
-55 4 -7 7 -22 9 -38 0 -7 5 -10 11 -7 6 4 8 38 4 88 -6 82 -14 116 -14 61z"/>
<path d="M2648 3363 c6 -2 18 -2 25 0 6 3 1 5 -13 5 -14 0 -19 -2 -12 -5z"/>
<path d="M5016 3341 c-4 -5 -2 -12 3 -15 5 -4 12 -2 15 3 4 5 2 12 -3 15 -5 4
-12 2 -15 -3z"/>
<path d="M4857 3321 c2 -9 13 -22 23 -29 16 -10 18 -9 14 3 -4 8 -10 15 -16
15 -5 0 -7 4 -4 9 3 5 0 11 -8 14 -9 4 -12 0 -9 -12z"/>
<path d="M5853 3276 c9 -7 17 -18 17 -25 0 -6 7 -11 15 -11 8 0 14 -3 14 -7
-1 -5 -1 -17 0 -27 1 -15 4 -17 12 -9 9 9 19 8 39 -2 15 -8 30 -12 33 -8 7 7
-18 33 -31 33 -6 0 -12 4 -14 8 -6 14 -75 62 -89 62 -10 -1 -9 -4 4 -14z"/>
<path d="M4920 3264 c0 -8 5 -12 10 -9 6 3 10 10 10 16 0 5 -4 9 -10 9 -5 0
-10 -7 -10 -16z"/>
<path d="M8075 3270 c3 -5 8 -10 11 -10 2 0 4 5 4 10 0 6 -5 10 -11 10 -5 0
-7 -4 -4 -10z"/>
<path d="M7398 3243 c7 -3 16 -2 19 1 4 3 -2 6 -13 5 -11 0 -14 -3 -6 -6z"/>
<path d="M6955 3153 c-11 -2 -35 -9 -54 -15 -28 -9 -31 -12 -18 -20 17 -9 81
14 93 33 3 5 4 8 2 8 -2 -1 -12 -3 -23 -6z"/>
<path d="M1770 3140 c-13 -8 -12 -10 3 -10 9 0 17 5 17 10 0 12 -1 12 -20 0z"/>
<path d="M5308 3128 c5 -7 12 -24 15 -38 3 -16 4 -12 4 13 -1 25 -6 37 -15 37
-10 0 -12 -4 -4 -12z"/>
<path d="M5545 3110 c3 -5 10 -10 16 -10 5 0 9 5 9 10 0 6 -7 10 -16 10 -8 0
-12 -4 -9 -10z"/>
<path d="M6957 3106 c-4 -10 1 -12 14 -9 23 6 24 9 5 16 -8 3 -17 0 -19 -7z"/>
<path d="M8452 3101 c4 -13 18 -16 19 -4 0 4 -5 9 -11 12 -7 2 -11 -2 -8 -8z"/>
<path d="M6263 3075 c0 -5 17 -10 38 -10 20 0 35 3 33 6 -7 12 -71 15 -71 4z"/>
<path d="M5588 3073 c7 -3 16 -2 19 1 4 3 -2 6 -13 5 -11 0 -14 -3 -6 -6z"/>
<path d="M5816 3003 c9 -38 14 -42 14 -10 0 14 -5 29 -10 32 -7 4 -8 -3 -4
-22z"/>
<path d="M5818 2763 c7 -3 16 -2 19 1 4 3 -2 6 -13 5 -11 0 -14 -3 -6 -6z"/>
<path d="M7030 3915 c0 -9 102 -56 113 -52 7 2 -11 16 -40 30 -50 26 -73 33
-73 22z"/>
<path d="M1853 1993 c-3 -7 9 -26 26 -43 17 -17 33 -47 37 -67 4 -19 5 -148 2
-286 l-5 -251 -39 -32 c-21 -18 -36 -35 -34 -37 8 -7 280 -17 280 -11 0 3 -11
19 -25 36 l-25 30 0 274 0 274 23 2 c90 6 157 -34 157 -94 0 -54 -25 -86 -130
-166 -39 -30 -39 -57 1 -77 60 -32 130 -244 85 -261 -42 -16 -6 -24 109 -24
84 0 125 4 125 11 0 6 -18 31 -39 56 -29 32 -48 70 -70 136 -17 51 -31 99 -31
108 0 8 12 26 26 40 51 47 76 104 75 169 -1 97 -43 160 -132 199 -39 18 -71
21 -228 24 -141 2 -184 0 -188 -10z"/>
<path d="M2524 1997 c-13 -7 -11 -15 10 -50 23 -41 24 -49 28 -277 3 -223 4
-237 27 -283 32 -65 85 -100 162 -105 78 -6 137 27 170 94 21 44 23 64 27 278
5 240 8 261 51 300 23 21 28 46 9 46 -7 1 -57 3 -111 6 -113 6 -124 -2 -85
-63 22 -37 23 -43 21 -251 -1 -183 -4 -217 -20 -250 -23 -48 -45 -51 -74 -10
-23 32 -24 40 -27 265 -3 199 -1 236 12 255 30 42 22 46 -85 50 -55 2 -107 -1
-115 -5z"/>
<path d="M3104 1996 c-3 -8 5 -29 18 -46 23 -31 23 -34 23 -310 l0 -279 -27
-28 c-47 -49 -40 -53 90 -53 65 0 122 3 125 6 4 4 -9 24 -28 46 l-35 38 0 168
c0 92 -3 178 -6 192 -5 24 -5 24 10 6 9 -11 64 -117 123 -237 106 -214 109
-218 139 -219 58 0 59 5 64 336 l5 303 28 28 c46 49 39 53 -88 53 -63 0 -115
-3 -115 -8 0 -4 11 -24 25 -45 24 -35 25 -42 23 -159 l-3 -123 -77 149 c-43
82 -78 157 -78 166 0 25 -20 30 -121 30 -69 0 -91 -3 -95 -14z"/>
<path d="M3755 2000 c-3 -6 4 -27 16 -47 21 -33 24 -52 27 -190 3 -84 1 -209
-3 -279 -7 -120 -9 -127 -36 -159 -16 -18 -29 -35 -29 -39 0 -3 56 -6 125 -6
140 0 146 4 90 56 l-35 32 0 188 1 189 25 -40 c14 -22 68 -127 120 -232 85
-172 98 -193 120 -193 13 0 33 9 44 20 19 19 20 33 20 306 0 294 1 306 42 351
37 40 21 48 -93 45 -57 -2 -106 -6 -109 -8 -2 -3 1 -13 8 -22 36 -49 43 -83
40 -195 l-3 -112 -26 50 c-41 80 -101 189 -112 203 -6 7 -13 30 -16 50 l-6 37
-102 3 c-63 2 -104 -1 -108 -8z"/>
<path d="M4380 2000 c0 -7 12 -29 28 -49 l27 -36 4 -228 c4 -271 -1 -326 -35
-366 -13 -16 -24 -32 -24 -35 0 -3 61 -6 135 -6 74 0 135 4 135 9 0 5 -7 14
-16 22 -41 34 -44 58 -44 333 l0 265 30 34 c17 19 30 40 30 46 0 7 -38 11
-119 11 -66 0 -126 3 -135 6 -9 4 -16 1 -16 -6z m138 -95 c3 -25 2 -27 -12
-16 -19 16 -22 55 -3 49 6 -3 14 -17 15 -33z m32 -59 c0 -3 -4 -8 -10 -11 -5
-3 -10 -1 -10 4 0 6 5 11 10 11 6 0 10 -2 10 -4z"/>
<path d="M4765 2000 c-4 -6 2 -26 14 -45 18 -31 20 -54 22 -303 l3 -269 -27
-41 c-15 -23 -27 -46 -27 -52 0 -14 227 -13 235 1 4 5 -9 26 -29 45 l-36 35 0
158 c0 87 -3 174 -6 192 -5 23 -3 31 4 24 15 -15 187 -353 207 -407 19 -51 45
-65 89 -48 14 5 27 11 28 12 1 2 4 139 7 306 l6 302 28 24 c15 13 27 33 27 45
0 20 -4 21 -109 21 -61 0 -112 -4 -115 -9 -3 -5 8 -26 24 -46 29 -37 30 -41
30 -147 0 -66 -4 -108 -10 -106 -17 6 -160 242 -160 264 0 51 -6 54 -105 54
-54 0 -97 -4 -100 -10z"/>
<path d="M6990 2000 c0 -5 12 -26 26 -47 l26 -38 -6 -253 -6 -254 -30 -59
c-16 -33 -30 -62 -30 -64 0 -3 110 -5 245 -5 188 0 247 3 250 13 2 6 5 60 7
120 3 76 0 107 -8 107 -6 0 -17 -13 -24 -29 -24 -60 -54 -76 -144 -79 -122 -6
-116 -19 -116 262 l0 233 26 38 c40 59 31 65 -101 65 -66 0 -115 -4 -115 -10z"/>
<path d="M7550 1999 c0 -6 12 -27 28 -46 l27 -36 6 -236 c6 -251 12 -285 62
-340 74 -81 215 -75 281 11 39 53 46 100 46 316 0 213 2 225 47 274 14 14 23
34 21 45 -3 16 -15 18 -112 21 -60 1 -113 -1 -117 -5 -5 -5 5 -29 21 -53 l30
-45 0 -176 c0 -202 -10 -274 -44 -307 l-23 -24 -29 25 -28 25 -4 218 c-3 186
-2 226 13 264 32 88 42 80 -99 80 -83 0 -126 -4 -126 -11z"/>
<path d="M8135 2001 c-3 -6 8 -26 25 -45 42 -47 50 -105 50 -351 l0 -200 -36
-54 c-23 -34 -32 -57 -26 -63 5 -5 91 -8 208 -6 191 3 202 4 249 29 67 34 104
88 112 162 7 71 -15 135 -60 173 -26 22 -29 29 -19 42 86 118 63 250 -53 303
-35 16 -67 19 -242 19 -115 0 -204 -4 -208 -9z m379 -129 c24 -22 38 -60 31
-83 -14 -42 -114 -75 -154 -50 -12 7 -18 93 -12 155 2 14 115 -5 135 -22z m6
-255 c57 -44 66 -118 22 -168 -23 -25 -38 -33 -79 -36 -84 -8 -89 -2 -85 116
l3 101 62 0 c34 0 69 -6 77 -13z"/>
<path d="M6590 1989 c-38 -15 -89 -68 -115 -120 -89 -174 -32 -471 105 -548
75 -42 182 -28 237 31 27 29 72 126 80 171 5 32 3 34 -27 41 -18 3 -48 6 -66
6 -34 0 -34 0 -29 -37 7 -44 -20 -97 -59 -114 -31 -15 -74 5 -98 46 -27 47
-41 163 -29 240 19 128 80 191 150 157 46 -22 59 -53 37 -87 -10 -15 -16 -28
-14 -30 2 -2 31 4 66 12 56 14 62 18 62 42 0 76 -53 161 -117 187 -37 16 -146
17 -183 3z"/>
<path d="M5575 1976 c-54 -20 -107 -80 -135 -152 -19 -47 -24 -79 -24 -159 -1
-120 26 -216 83 -297 53 -75 84 -89 211 -89 58 0 123 -1 145 -2 l40 -2 1 125
c1 156 -1 145 30 174 15 13 23 29 20 35 -9 14 -222 15 -231 1 -3 -5 4 -23 16
-39 17 -24 21 -38 16 -71 -10 -77 -75 -114 -127 -72 -46 37 -67 261 -34 371
13 45 21 55 50 67 42 17 90 7 120 -27 17 -19 17 -21 1 -48 -9 -16 -17 -31 -17
-33 0 -3 30 0 68 6 l67 11 3 47 c3 40 -1 51 -29 83 -18 20 -50 46 -73 57 -52
27 -148 33 -201 14z m-42 -118 c-10 -11 -19 -15 -21 -8 -5 15 18 41 30 34 5
-3 1 -15 -9 -26z m-17 -75 c-11 -11 -19 6 -11 24 8 17 8 17 12 0 3 -10 2 -21
-1 -24z m274 -453 c0 -5 -4 -10 -10 -10 -5 0 -10 5 -10 10 0 6 5 10 10 10 6 0
10 -4 10 -10z m-40 -10 c0 -5 -4 -10 -10 -10 -5 0 -10 5 -10 10 0 6 5 10 10
10 6 0 10 -4 10 -10z"/>
</g>
</svg>
